<svg xmlns="http://www.w3.org/2000/svg" viewBox="-72 -72 544 544" width="512" height="512" role="img" aria-labelledby="online-title online-desc" style="overflow:visible">
  <title id="online-title">在线</title>
  <desc id="online-desc">Online</desc>
  <style>

    .root { transform-origin: 200px 220px; animation: pulse 1.35s cubic-bezier(0.45, 0, 0.55, 1) infinite; }
    @keyframes pulse { 0%,100% { transform: scale(1); } 50% { transform: scale(1.05); } }

.pon{animation:on 1.2s cubic-bezier(0.45, 0, 0.55, 1) infinite}@keyframes on{0%,100%{opacity:.7}50%{opacity:1}}
  </style>
  <g class="root">

    <ellipse cx="152" cy="208" rx="90" ry="102" fill="#FF9800"/>
    <ellipse cx="248" cy="208" rx="90" ry="102" fill="#FF9800"/>
    <path d="M200 128 Q192 208 200 278" fill="none" stroke="#E87E00" stroke-width="10" stroke-linecap="round"/>
<g class="arm-l">
      <path d="M78 230 Q60 200 42 170" fill="none" stroke="#000000" stroke-width="14" stroke-linecap="round"/>
      
      <circle cx="42" cy="170" r="22" fill="#FFFFFF" stroke="#000000" stroke-width="6"/>
      <path d="M32 164 Q42 158 52 164" fill="none" stroke="#000000" stroke-width="3.5" stroke-linecap="round"/></g><g class="arm-r">
      <path d="M322 230 Q340 200 358 170" fill="none" stroke="#000000" stroke-width="14" stroke-linecap="round"/>
      
      <circle cx="358" cy="170" r="22" fill="#FFFFFF" stroke="#000000" stroke-width="6"/>
      <path d="M348 164 Q358 158 368 164" fill="none" stroke="#000000" stroke-width="3.5" stroke-linecap="round"/></g>

    <ellipse cx="166" cy="160" rx="18" ry="23" fill="#FFFFFF" stroke="#000000" stroke-width="4"/>
    <circle cx="170" cy="157" r="10" fill="#000000"/><circle cx="174" cy="152" r="3.5" fill="#FFFFFF"/>
    <ellipse cx="234" cy="160" rx="18" ry="23" fill="#FFFFFF" stroke="#000000" stroke-width="4"/>
    <circle cx="238" cy="157" r="10" fill="#000000"/><circle cx="242" cy="152" r="3.5" fill="#FFFFFF"/>
<path d="M176 268 Q200 292 224 268" fill="none" stroke="#000000" stroke-width="7" stroke-linecap="round"/>
  </g>

  <g transform="translate(310 100)"><g class="pon"><circle r="14" fill="#78DC78" stroke="#000" stroke-width="3"/></g></g>
</svg>
